<?xml version="1.0" encoding="UTF-8" standalone="no"?>
<svg
   xmlns:dc="http://purl.org/dc/elements/1.1/"
   xmlns:cc="http://creativecommons.org/ns#"
   xmlns:rdf="http://www.w3.org/1999/02/22-rdf-syntax-ns#"
   xmlns:svg="http://www.w3.org/2000/svg"
   xmlns="http://www.w3.org/2000/svg"
   xmlns:sodipodi="http://sodipodi.sourceforge.net/DTD/sodipodi-0.dtd"
   xmlns:inkscape="http://www.inkscape.org/namespaces/inkscape"
   version="1.1"
   id="svg1"
   width="87.59333"
   height="82.64785"
   viewBox="0 0 87.593332 82.647847"
   sodipodi:docname="logo.svg"
   xml:space="preserve"
   inkscape:version="1.0.2 (e86c870879, 2021-01-15)"><metadata
     id="metadata23"><rdf:RDF><cc:Work
         rdf:about=""><dc:format>image/svg+xml</dc:format><dc:type
           rdf:resource="http://purl.org/dc/dcmitype/StillImage" /><dc:title></dc:title></cc:Work></rdf:RDF></metadata><defs
     id="defs1" /><sodipodi:namedview
     id="namedview1"
     pagecolor="#ffffff"
     bordercolor="#000000"
     borderopacity="0.25"
     inkscape:showpageshadow="2"
     inkscape:pageopacity="0.0"
     inkscape:pagecheckerboard="0"
     inkscape:deskcolor="#d1d1d1"
     inkscape:zoom="2.3737501"
     inkscape:cx="109.21623"
     inkscape:cy="63.312272"
     inkscape:window-width="1822"
     inkscape:window-height="995"
     inkscape:window-x="2002"
     inkscape:window-y="1107"
     inkscape:window-maximized="1"
     inkscape:current-layer="text18"
     inkscape:document-rotation="0"
     showgrid="false"
     fit-margin-top="0"
     fit-margin-left="0"
     fit-margin-right="0"
     fit-margin-bottom="0" /><g
     inkscape:groupmode="layer"
     inkscape:label="Image"
     id="g1"
     transform="translate(-1124.3812,-679.93678)"><path
       style="opacity:1;fill:#784421;fill-opacity:1;stroke:none;stroke-width:0.275383;stroke-linejoin:round;stroke-dasharray:none;stroke-dashoffset:5.83107;stroke-opacity:1;paint-order:markers stroke fill"
       d="m 1181.9148,730.72293 c 8.0002,1.2685 15.3116,-1.94055 22.7736,-4.16983 l 5.239,19.56609 c -8.2969,11.37707 -18.3959,12.82278 -29.8286,10.5164 z"
       id="path9"
       sodipodi:nodetypes="ccccc" /><path
       id="path12"
       style="opacity:1;fill:#999999;fill-opacity:1;stroke:none;stroke-width:0.537333;stroke-linejoin:round;stroke-dasharray:none;stroke-dashoffset:5.83107;stroke-opacity:1;paint-order:markers stroke fill"
       d="m 1202.1646,696.39879 a 8.5534778,8.5534778 0 0 0 -2.0449,0.36032 c 0.064,0.0571 0.1276,0.11575 0.1879,0.17946 l 4.0639,4.29411 c 1.1101,1.17306 1.0598,3.01111 -0.1133,4.12134 l -1.3565,1.28357 c -1.173,1.11022 -3.0111,1.05984 -4.1212,-0.11323 l -4.0639,-4.29411 c -0.069,-0.0727 -0.1329,-0.14797 -0.1928,-0.22538 a 8.5534778,8.5534778 0 0 0 1.8038,8.81887 8.5534778,8.5534778 0 0 0 3.9772,2.36456 v 33.49773 c 0,6.02385 6.8788,6.13697 6.8788,0 v -34.57976 a 8.5534778,8.5534778 0 0 0 1.2359,-0.94989 8.5534778,8.5534778 0 0 0 0.3326,-12.09161 8.5534778,8.5534778 0 0 0 -6.5875,-2.66598 z" /><path
       style="opacity:1;fill:#784421;fill-opacity:1;stroke:none;stroke-width:0.275383;stroke-linejoin:round;stroke-dasharray:none;stroke-dashoffset:5.83107;stroke-opacity:1;paint-order:markers stroke fill"
       d="m 1146.9864,734.52199 c -0.1512,-0.45362 -6.5774,-11.41602 -8.8455,-22.15162 -6.0237,-3.77946 -9.6439,-9.96241 -13.7597,-15.64977 l 17.9935,-2.26808 c -2.4257,-2.20302 -5.3298,-9.73254 -4.385,-14.51574 13.4069,5.0829 26.8138,6.79262 40.2207,8.31631 5.4434,0.45362 -0.6049,23.89047 -0.6049,23.89047"
       id="path2"
       sodipodi:nodetypes="ccccccc" /><path
       style="opacity:1;fill:#4063d8;fill-opacity:1;stroke:none;stroke-width:0.275383;stroke-linejoin:round;stroke-dasharray:none;stroke-dashoffset:5.83107;stroke-opacity:1;paint-order:markers stroke fill"
       d="m 1136.6288,692.78925 c 0,0 5.2983,-5.11435 8.6188,-6.50184 5.781,-2.41566 15.1962,-2.7973 18.5982,-2.72169 3.0611,0.42284 4.4672,17.2185 2.2681,25.10012 l -16.179,12.70126 c -5.173,0.53616 -10.4552,-0.0191 -15.7253,-0.45361 -3.7405,-2.53784 -5.24,-7.5985 -2.7217,-9.37475 l 9.7543,-3.22989 c 3.6706,-6.35786 4.1078,-8.61485 3.1959,-17.92971 z"
       id="path3"
       sodipodi:nodetypes="cscccccccc" /><path
       style="opacity:1;fill:#a05a2c;fill-opacity:1;stroke:none;stroke-width:0.275383;stroke-linejoin:round;stroke-dasharray:none;stroke-dashoffset:5.83107;stroke-opacity:1;paint-order:markers stroke fill"
       d="m 1179.4557,688.27629 c -0.5353,-0.79883 -8.0549,-2.27697 -9.3554,-1.76415 -6.1903,2.44112 -15.023,8.29655 -17.0535,9.72958 -1.5218,2.35396 2.4876,4.20675 6.6832,4.23076 2.86,0.0163 5.4917,-1.33218 7.7508,-1.93202 l -1.6572,11.17299 11.9749,2.77988 c -0.2787,-0.17149 5.3103,-18.76553 1.6572,-24.21704 z"
       id="path4"
       sodipodi:nodetypes="sscscccs" /><path
       style="opacity:1;fill:#5b82ff;fill-opacity:1;stroke:none;stroke-width:0.795737;stroke-linecap:square;stroke-linejoin:round;stroke-dasharray:none;stroke-dashoffset:5.83107;stroke-opacity:1;paint-order:markers stroke fill"
       d="m 1150.5397,721.4049 c -6.055,-2.66684 -3.6258,-11.19115 0.5769,-13.31164 l -20.3469,3.52109 c -2.1139,4.18979 -0.6289,7.19965 3.4021,9.37474 5.6658,1.04797 10.9915,0.62186 16.3679,0.41581 z"
       id="path18"
       sodipodi:nodetypes="ccccc" /><path
       style="opacity:1;fill:#a05a2c;fill-opacity:1;stroke:none;stroke-width:0.275383;stroke-linejoin:round;stroke-dasharray:none;stroke-dashoffset:5.83107;paint-order:markers stroke fill"
       d="m 1181.3802,756.91795 v -38.91832 c -0.1069,-7.71149 -19.1965,-16.9955 -30.2579,0 -7.3739,11.32969 -5.3143,18.85388 -1.8176,27.26421 1.9589,4.7118 11.5471,10.05034 11.5471,10.05034 -3.2231,2.24152 -12.0713,3.98303 -3.5282,7.27045 h 10.4779 c 1.0635,-1.69149 0.2616,-3.17574 -1.2281,-4.58355 h 5.8257 c -0.9303,1.26005 -1.6599,2.60608 -1.196,4.46362 h 13.2778 c -0.1393,-2.29604 -1.2514,-4.10568 -3.1007,-5.54675 z"
       id="path1"
       sodipodi:nodetypes="ccsscccccccc" /><path
       style="opacity:1;fill:#d38d5f;fill-opacity:1;stroke:none;stroke-width:0.275383;stroke-linejoin:round;stroke-dasharray:none;stroke-dashoffset:5.83107;stroke-opacity:1;paint-order:markers stroke fill"
       d="m 1197.0973,716.39585 c -5.9162,1.49993 -11.6134,1.19666 -16.6794,-3.52831 -7.7548,-7.23286 -16.7091,-7.09872 -19.8868,1.38994 -1.7399,4.64771 -1.9029,11.13648 10.3711,12.1887 0,0 -11.644,7.8342 -8.2327,13.2579 2.8654,4.55583 16.5724,3.10064 16.5724,3.10064 3.7471,0.0614 5.3438,3.56805 8.0189,5.77359 1.9478,-6.80702 4.73,-13.84871 -2.1385,-18.17614 l 0.4277,-3.52831 c 6.0508,-0.74061 8.8447,-5.55227 11.5473,-10.47801 z"
       id="path5"
       sodipodi:nodetypes="csscsccccc" /><circle
       style="opacity:1;fill:#ffffff;fill-opacity:1;stroke:none;stroke-width:0.275383;stroke-linejoin:round;stroke-dasharray:none;stroke-dashoffset:5.83107;stroke-opacity:1;paint-order:markers stroke fill"
       id="path6"
       cx="1175.2859"
       cy="732.96826"
       r="5.4528422" /><circle
       style="opacity:1;fill:#ffffff;fill-opacity:1;stroke:none;stroke-width:0.275383;stroke-linejoin:round;stroke-dasharray:none;stroke-dashoffset:5.83107;stroke-opacity:1;paint-order:markers stroke fill"
       id="circle6"
       cx="1172.0784"
       cy="719.28265"
       r="5.4528422" /><circle
       style="opacity:1;fill:#000000;fill-opacity:1;stroke:none;stroke-width:0.105294;stroke-linejoin:round;stroke-dasharray:none;stroke-dashoffset:5.83107;stroke-opacity:1;paint-order:markers stroke fill"
       id="circle7"
       cx="1173.4148"
       cy="721.04681"
       r="2.0849104" /><circle
       style="opacity:1;fill:#000000;fill-opacity:1;stroke:none;stroke-width:0.105294;stroke-linejoin:round;stroke-dasharray:none;stroke-dashoffset:5.83107;stroke-opacity:1;paint-order:markers stroke fill"
       id="circle8"
       cx="1175.9808"
       cy="730.82983"
       r="2.0849104" /><path
       style="opacity:1;fill:#000000;fill-opacity:1;stroke:none;stroke-width:0.275383;stroke-linejoin:round;stroke-dasharray:none;stroke-dashoffset:5.83107;stroke-opacity:1;paint-order:markers stroke fill"
       d="m 1168.1758,727.03424 c 2.9253,-1.84737 7.2276,-4.10215 7.8585,-1.12264 0.6194,2.925 -5.2952,1.53961 -7.8585,1.12264 z"
       id="path8"
       sodipodi:nodetypes="csc" /><path
       style="opacity:1;fill:#a05a2c;fill-opacity:1;stroke:none;stroke-width:0.275383;stroke-linejoin:round;stroke-dasharray:none;stroke-dashoffset:5.83107;stroke-opacity:1;paint-order:markers stroke fill"
       d="m 1205.6185,725.57564 c -7.5539,2.71381 -12.7543,11.7255 -10.0181,16.48064 0.9108,1.58297 4.3836,1.81762 4.3836,1.81762 0,0 -7.8547,10.38495 -3.7421,13.57864 2.5302,1.9649 8.1258,-5.13208 8.1258,-5.13208 0,0 -0.1245,2.95243 0.9623,3.20755 2.9947,0.70305 6.0062,-2.80006 6.3081,-6.73586 0.5429,-7.07738 1.3684,-25.87075 -6.0196,-23.21651 z"
       id="path10"
       sodipodi:nodetypes="sscscsss" /><path
       style="opacity:1;fill:#5b82ff;fill-opacity:1;stroke:none;stroke-width:0.795737;stroke-linecap:square;stroke-linejoin:round;stroke-dasharray:none;stroke-dashoffset:5.83107;stroke-opacity:1;paint-order:markers stroke fill"
       d="m 1156.3105,690.19823 c -7.9113,-0.24911 -12.1073,0.27529 -20.0888,2.78368 l 7.6862,-6.25853 c 7.2944,-3.81744 15.2768,-3.45125 19.9546,-3.15521 -3.5649,0.66756 -5.4144,1.42633 -7.552,6.63006 z"
       id="path17"
       sodipodi:nodetypes="ccccc" /><g
       aria-label="Blueprints.jl"
       id="text18"
       style="font-style:normal;font-variant:normal;font-weight:normal;font-stretch:normal;font-size:47.7576px;font-family:'Alte DIN 1451 Mittelschrift';-inkscape-font-specification:'Alte DIN 1451 Mittelschrift';text-align:start;writing-mode:lr-tb;direction:ltr;text-anchor:start;opacity:1;fill:#000000;fill-opacity:1;stroke:none;stroke-width:3.30871;stroke-linecap:square;stroke-linejoin:round;stroke-dasharray:none;stroke-dashoffset:5.83107;stroke-opacity:1;paint-order:markers stroke fill" /></g></svg>
